<?xml version="1.0" encoding="UTF-8" standalone="no"?>
<!-- Created with Inkscape (http://www.inkscape.org/) -->

<svg
   width="64"
   height="64"
   viewBox="0 0 16.933333 16.933333"
   version="1.1"
   id="svg1"
   inkscape:version="1.4.2 (f4327f4, 2025-05-13)"
   sodipodi:docname="moodscape_icon.svg"
   xmlns:inkscape="http://www.inkscape.org/namespaces/inkscape"
   xmlns:sodipodi="http://sodipodi.sourceforge.net/DTD/sodipodi-0.dtd"
   xmlns="http://www.w3.org/2000/svg"
   xmlns:svg="http://www.w3.org/2000/svg">
  <sodipodi:namedview
     id="namedview1"
     pagecolor="#ffffff"
     bordercolor="#000000"
     borderopacity="0.25"
     inkscape:showpageshadow="2"
     inkscape:pageopacity="0.0"
     inkscape:pagecheckerboard="0"
     inkscape:deskcolor="#d1d1d1"
     inkscape:document-units="mm"
     inkscape:zoom="8.1336326"
     inkscape:cx="20.101719"
     inkscape:cy="27.601443"
     inkscape:window-width="1920"
     inkscape:window-height="1009"
     inkscape:window-x="2552"
     inkscape:window-y="-8"
     inkscape:window-maximized="1"
     inkscape:current-layer="layer1" />
  <defs
     id="defs1">
    <inkscape:perspective
       sodipodi:type="inkscape:persp3d"
       inkscape:vp_x="0 : 8.4666665 : 1"
       inkscape:vp_y="0 : 1000 : 0"
       inkscape:vp_z="16.933333 : 8.4666665 : 1"
       inkscape:persp3d-origin="8.4666665 : 5.6444443 : 1"
       id="perspective3" />
  </defs>
  <g
     inkscape:label="Layer 1"
     inkscape:groupmode="layer"
     id="layer1">
    <path
       sodipodi:type="star"
       style="fill:#fff0f5;fill-opacity:1;stroke:#ff74bc;stroke-width:0.70432877;stroke-linecap:round;stroke-linejoin:round;stroke-dasharray:none;stroke-opacity:1"
       id="path9"
       inkscape:flatsided="false"
       sodipodi:sides="13"
       sodipodi:cx="7.9046783"
       sodipodi:cy="8.1323853"
       sodipodi:r1="6.8683567"
       sodipodi:r2="3.4341786"
       sodipodi:arg1="-0.44034674"
       sodipodi:arg2="-0.19868577"
       inkscape:rounded="0"
       inkscape:randomized="0"
       d="m 14.117821,5.2047266 -2.846525,2.2498166 3.495398,0.9729203 -3.566015,0.6692676 2.642882,2.4858699 -3.468573,-1.064602 1.184915,3.429338 L 8.983379,11.392751 8.4388761,14.979936 7.3446527,11.520593 5.1954713,14.443845 5.8342214,10.872238 2.5727132,12.461874 4.7981069,9.5962147 1.171444,9.4880692 4.4736705,7.9848462 1.3126777,6.2036938 4.9352366,6.407277 2.9640593,3.3611583 6.077066,5.2249094 5.7472771,1.6116534 7.6375794,4.7086094 9.0247296,1.3559696 9.2592819,4.9766553 12.045592,2.652681 10.570661,5.9676408 Z"
       inkscape:transform-center-x="-0.073136665"
       inkscape:transform-center-y="0.040398858"
       transform="matrix(1.1358332,0,0,1.1358332,-0.58486463,-0.81076465)" />
    <path
       sodipodi:type="spiral"
       style="fill:none;fill-rule:evenodd;stroke:#ff74bc;stroke-width:0.41381003;stroke-linecap:round;stroke-dasharray:none;stroke-opacity:1;paint-order:normal;fill-opacity:1"
       id="path10"
       sodipodi:cx="8.5227394"
       sodipodi:cy="8.0998554"
       sodipodi:expansion="1"
       sodipodi:revolution="4"
       sodipodi:radius="2.6356959"
       sodipodi:argument="-26.084723"
       sodipodi:t0="0"
       d="M 8.5227394,8.0998554 C 8.5802315,8.019122 8.6599311,8.1375225 8.6569237,8.195411 8.6487741,8.3522852 8.459157,8.4091659 8.3316283,8.3682241 8.1035094,8.2949888 8.0315387,8.0173111 8.1201864,7.8131887 8.2502804,7.513631 8.626164,7.4246463 8.9049617,7.5631181 9.2765551,7.7476792 9.382833,8.2248203 9.1936611,8.5776332 8.9556075,9.0216123 8.3759246,9.1452813 7.949406,8.9049614 7.4328348,8.6139018 7.2917229,7.9310175 7.5834491,7.4309665 7.9272383,6.8416737 8.7137084,6.6830863 9.2871839,7.0263808 9.9492841,7.4227278 10.125369,8.3130275 9.7303984,8.9598555 9.2816074,9.6948226 8.2873136,9.8884217 7.5671838,9.4416988 6.7593069,8.9405431 6.5481818,7.842139 7.0467118,7.0487442 7.6001745,6.1679257 8.8027744,5.9392653 9.6694062,6.4896434 10.623191,7.0953703 10.869394,8.4022305 10.267136,9.3420778 9.6091777,10.368847 8.1980073,10.632599 7.1849615,9.9784361 6.0851919,9.2682727 5.8038874,7.7527527 6.5099744,6.666522 7.2723226,5.4937401 8.8922239,5.1948786 10.051628,5.9529061"
       transform="matrix(1.2082839,0,0,1.2082839,-1.7469445,-1.1708943)" />
  </g>
</svg>
